<?xml version="1.0" encoding="UTF-8" standalone="no"?>
<svg
   xmlns:dc="http://purl.org/dc/elements/1.1/"
   xmlns:cc="http://creativecommons.org/ns#"
   xmlns:rdf="http://www.w3.org/1999/02/22-rdf-syntax-ns#"
   xmlns:svg="http://www.w3.org/2000/svg"
   xmlns="http://www.w3.org/2000/svg"
   xmlns:xlink="http://www.w3.org/1999/xlink"
   version="1.1"
   id="svg2"
   viewBox="0 0 928.8935 226.15916"
   height="63.827141mm"
   width="262.15439mm">
  <defs
     id="defs4">
    <linearGradient
       gradientUnits="userSpaceOnUse"
       id="b"
       x1="160.008"
       y1="40.007999"
       x2="100.008"
       y2="180">
      <stop
         stop-color="#37aee2"
         offset="0"
         id="stop4451" />
      <stop
         stop-color="#1e96c8"
         offset="1"
         id="stop4453" />
    </linearGradient>
    <linearGradient
       gradientUnits="userSpaceOnUse"
       gradientTransform="matrix(1.0919081,0,0,0.91582798,0,-6.9050466)"
       id="w"
       x1="123.64119"
       y1="131.02763"
       x2="146.52715"
       y2="174.70815">
      <stop
         stop-color="#eff7fc"
         offset="0"
         id="stop4456" />
      <stop
         stop-color="#fff"
         offset="1"
         id="stop4458" />
    </linearGradient>
    <linearGradient
       gradientTransform="scale(1.2018953,1)"
       gradientUnits="userSpaceOnUse"
       y2="120"
       x2="772.85718"
       y1="120"
       x1="9.5895064e-07"
       id="linearGradient4582"
       xlink:href="#b" />
  </defs>
  <metadata
     id="metadata7">
    <rdf:RDF>
      <cc:Work
         rdf:about="">
        <dc:format>image/svg+xml</dc:format>
        <dc:type
           rdf:resource="http://purl.org/dc/dcmitype/StillImage" />
        <dc:title></dc:title>
      </cc:Work>
    </rdf:RDF>
  </metadata>
  <g
     transform="translate(-31.428572,-189.28263)"
     id="layer1">
    <g
       transform="translate(31.428571,182.36221)"
       id="g4478">
      <rect
         ry="113.07958"
         y="6.9204197"
         x="9.5895064e-07"
         height="226.15916"
         width="928.89349"
         id="rect4484"
         style="fill:url(#linearGradient4582);fill-opacity:1;stroke:none;stroke-width:20;stroke-miterlimit:4;stroke-dasharray:none;stroke-opacity:1" />
      <path
         style="fill:#c8daea"
         d="m 98,175 c -3.8876,0 -3.227,-1.4679 -4.5678,-5.1695 L 82,132.2059 170,80"
         id="path4462" />
      <path
         style="fill:#a9c9dd"
         d="m 98,175 c 3,0 4.3255,-1.372 6,-3 l 16,-15.558 -19.958,-12.035"
         id="path4464" />
      <path
         style="fill:url(#w)"
         d="m 100.04,137.50495 48.36,35.729 c 5.5185,3.0449 9.5014,1.4684 10.876,-5.1235 l 19.685,-92.762997 c 2.0154,-8.0802 -3.0801,-11.745 -8.3594,-9.3482 l -115.59,44.570997 c -7.8901,3.1647 -7.8441,7.5666 -1.4382,9.528 l 29.663,9.2583 68.673,-43.324997 c 3.2419,-1.9659 6.2173,-0.90899 3.7752,1.2584"
         id="path4466" />
      <g
         id="text4584"
         style="font-style:normal;font-variant:normal;font-weight:300;font-stretch:normal;font-size:89.18396759px;line-height:125%;font-family:'Helvetica Neue';-inkscape-font-specification:'Helvetica Neue, Light';text-align:start;letter-spacing:0px;word-spacing:0px;writing-mode:lr-tb;text-anchor:start;fill:#ffffff;fill-opacity:1;stroke:none;stroke-width:1px;stroke-linecap:butt;stroke-linejoin:miter;stroke-opacity:1">
        <path
           id="path4589"
           d="m 241.09466,110.93456 0,-22.741916 20.86905,0 q 14.35861,0 14.35861,11.950656 0,2.22959 -0.89184,4.19164 -0.89183,1.96205 -2.67551,3.47818 -1.78368,1.42694 -4.4592,2.31878 -2.67552,0.80266 -6.33206,0.80266 l -20.86905,0 z m -6.06451,-27.914586 0,63.677356 26.93356,0 q 5.17267,0 8.82921,-0.89184 3.74573,-0.98103 6.24288,-2.40797 2.58633,-1.51613 4.10246,-3.47817 1.51613,-1.96205 2.31878,-3.9241 0.80266,-2.05123 1.07021,-3.92409 0.26755,-1.96205 0.26755,-3.47818 0,-6.24288 -3.65654,-10.43452 -3.65654,-4.28083 -9.81024,-5.08349 l 0,-0.17837 q 2.49715,-0.5351 4.4592,-1.87286 2.05123,-1.33776 3.47818,-3.21062 1.51612,-1.96205 2.31878,-4.28083 0.80265,-2.40797 0.80265,-4.905122 0,-4.459198 -1.69449,-7.402269 -1.6945,-3.032255 -4.54838,-4.815934 -2.76471,-1.872864 -6.51043,-2.586335 -3.65655,-0.802656 -7.66982,-0.802656 l -26.93356,0 z m 6.06451,58.504686 0,-25.41743 20.86905,0 q 8.11574,0 12.39657,3.12143 4.37001,3.03226 4.37001,9.18595 0,3.83491 -1.33776,6.42125 -1.33776,2.49715 -3.65654,4.01328 -2.31878,1.51612 -5.35104,2.14041 -3.03225,0.53511 -6.42124,0.53511 l -20.86905,0 z" />
        <path
           id="path4591"
           d="m 312.97415,104.06739 q 4.01328,0 7.04553,1.6945 3.03225,1.69449 4.9943,4.45919 2.05123,2.76471 3.03226,6.33207 1.0702,3.47817 1.0702,7.13471 0,3.65655 -1.0702,7.2239 -0.98103,3.47818 -3.03226,6.24288 -1.96205,2.76471 -4.9943,4.4592 -3.03225,1.6945 -7.04553,1.6945 -4.01328,0 -7.04554,-1.6945 -3.03225,-1.69449 -5.08348,-4.4592 -1.96205,-2.7647 -3.03226,-6.24288 -0.98102,-3.56735 -0.98102,-7.2239 0,-3.65654 0.98102,-7.13471 1.07021,-3.56736 3.03226,-6.33207 2.05123,-2.7647 5.08348,-4.45919 3.03226,-1.6945 7.04554,-1.6945 z m 0,-4.72675 q -5.26186,0 -9.36432,1.96205 -4.01328,1.96204 -6.77798,5.26185 -2.7647,3.29981 -4.19165,7.75901 -1.42694,4.37001 -1.42694,9.36431 0,4.99431 1.42694,9.4535 1.42695,4.37002 4.19165,7.66982 2.7647,3.29981 6.77798,5.26186 4.10246,1.87286 9.36432,1.87286 5.26185,0 9.27513,-1.87286 4.10246,-1.96205 6.86716,-5.26186 2.76471,-3.2998 4.19165,-7.66982 1.42694,-4.45919 1.42694,-9.4535 0,-4.9943 -1.42694,-9.36431 -1.42694,-4.4592 -4.19165,-7.75901 -2.7647,-3.29981 -6.86716,-5.26185 -4.01328,-1.96205 -9.27513,-1.96205 z" />
        <path
           id="path4593"
           d="m 351.91967,100.6784 0,-13.823516 -5.61859,0 0,13.823516 -8.02655,0 0,4.72675 8.02655,0 0,31.48194 q -0.0892,5.88614 2.14042,8.11574 2.2296,2.14042 7.84819,2.14042 1.24857,0 2.49715,-0.0892 1.24857,-0.0892 2.49715,-0.0892 l 0,-4.72675 q -2.40797,0.26755 -4.81593,0.26755 -3.03226,-0.17837 -3.83492,-1.6945 -0.71347,-1.60531 -0.71347,-4.37001 l 0,-31.03602 9.36432,0 0,-4.72675 -9.36432,0 z" />
        <path
           id="path4595"
           d="m 413.65449,104.06739 q 4.01327,0 7.04553,1.6945 3.03225,1.69449 4.9943,4.45919 2.05123,2.76471 3.03226,6.33207 1.0702,3.47817 1.0702,7.13471 0,3.65655 -1.0702,7.2239 -0.98103,3.47818 -3.03226,6.24288 -1.96205,2.76471 -4.9943,4.4592 -3.03226,1.6945 -7.04553,1.6945 -4.01328,0 -7.04554,-1.6945 -3.03225,-1.69449 -5.08348,-4.4592 -1.96205,-2.7647 -3.03226,-6.24288 -0.98102,-3.56735 -0.98102,-7.2239 0,-3.65654 0.98102,-7.13471 1.07021,-3.56736 3.03226,-6.33207 2.05123,-2.7647 5.08348,-4.45919 3.03226,-1.6945 7.04554,-1.6945 z m 0,-4.72675 q -5.26186,0 -9.36432,1.96205 -4.01328,1.96204 -6.77798,5.26185 -2.7647,3.29981 -4.19165,7.75901 -1.42694,4.37001 -1.42694,9.36431 0,4.99431 1.42694,9.4535 1.42695,4.37002 4.19165,7.66982 2.7647,3.29981 6.77798,5.26186 4.10246,1.87286 9.36432,1.87286 5.26185,0 9.27513,-1.87286 4.10246,-1.96205 6.86716,-5.26186 2.76471,-3.2998 4.19165,-7.66982 1.42694,-4.45919 1.42694,-9.4535 0,-4.9943 -1.42694,-9.36431 -1.42694,-4.4592 -4.19165,-7.75901 -2.7647,-3.29981 -6.86716,-5.26185 -4.01328,-1.96205 -9.27513,-1.96205 z" />
        <path
           id="path4597"
           d="m 443.59242,100.6784 0,46.01893 5.61859,0 0,-26.84438 q 0.0892,-3.38899 1.07021,-6.24288 1.07021,-2.94307 2.85389,-4.9943 1.87286,-2.14041 4.45919,-3.2998 2.67552,-1.24858 6.06451,-1.24858 3.38899,0 5.61859,1.07021 2.31879,1.07021 3.65655,2.94307 1.33776,1.87286 1.87286,4.4592 0.5351,2.49715 0.5351,5.44022 l 0,28.71724 5.61859,0 0,-29.60908 q 0,-4.10246 -0.80265,-7.40227 -0.80266,-3.29981 -2.76471,-5.52941 -1.96204,-2.31878 -5.26185,-3.56735 -3.21062,-1.24858 -8.02656,-1.24858 -4.90512,0 -9.00758,2.58633 -4.10246,2.49716 -5.70777,6.6888 l -0.17837,0 0,-7.93737 -5.61859,0 z" />
        <path
           id="path4599"
           d="m 510.43582,83.019974 0,5.17267 22.11762,0 0,58.504686 6.06451,0 0,-58.504686 22.20681,0 0,-5.17267 -50.38894,0 z" />
        <path
           id="path4601"
           d="m 589.03267,120.47724 -29.78745,0 q 0.35674,-3.12144 1.42694,-6.06451 1.1594,-3.03225 3.03226,-5.26185 1.87286,-2.31879 4.54838,-3.65655 2.67552,-1.42694 6.15369,-1.42694 3.389,0 6.06451,1.42694 2.67552,1.33776 4.54839,3.65655 1.87286,2.2296 2.85388,5.17267 1.07021,2.94307 1.1594,6.15369 z m -29.78745,4.72675 35.40604,0 q 0.17836,-4.81593 -0.89184,-9.4535 -1.07021,-4.72675 -3.56736,-8.29411 -2.40797,-3.65654 -6.33206,-5.88614 -3.9241,-2.2296 -9.45351,-2.2296 -5.44022,0 -9.4535,2.14042 -3.92409,2.05123 -6.42124,5.5294 -2.49715,3.38899 -3.74573,7.75901 -1.15939,4.37001 -1.15939,8.91839 0,4.90512 1.15939,9.36432 1.24858,4.37001 3.74573,7.759 2.49715,3.29981 6.42124,5.26186 4.01328,1.87286 9.4535,1.87286 8.74003,0 13.46678,-4.28083 4.81594,-4.28083 6.59962,-12.12902 l -5.61859,0 q -1.33776,5.35104 -4.81594,8.56166 -3.47817,3.21063 -9.63187,3.21063 -4.01327,0 -6.86716,-1.6945 -2.85389,-1.69449 -4.72675,-4.28083 -1.87286,-2.58633 -2.7647,-5.79696 -0.80266,-3.2998 -0.80266,-6.33206 z" />
        <path
           id="path4603"
           d="m 602.28136,83.019974 0,63.677356 5.61859,0 0,-63.677356 -5.61859,0 z" />
        <path
           id="path4605"
           d="m 651.65303,120.47724 -29.78745,0 q 0.35674,-3.12144 1.42695,-6.06451 1.15939,-3.03225 3.03225,-5.26185 1.87286,-2.31879 4.54838,-3.65655 2.67552,-1.42694 6.1537,-1.42694 3.38899,0 6.06451,1.42694 2.67552,1.33776 4.54838,3.65655 1.87286,2.2296 2.85389,5.17267 1.0702,2.94307 1.15939,6.15369 z m -29.78745,4.72675 35.40604,0 q 0.17836,-4.81593 -0.89184,-9.4535 -1.07021,-4.72675 -3.56736,-8.29411 -2.40797,-3.65654 -6.33206,-5.88614 -3.9241,-2.2296 -9.4535,-2.2296 -5.44023,0 -9.4535,2.14042 -3.9241,2.05123 -6.42125,5.5294 -2.49715,3.38899 -3.74573,7.75901 -1.15939,4.37001 -1.15939,8.91839 0,4.90512 1.15939,9.36432 1.24858,4.37001 3.74573,7.759 2.49715,3.29981 6.42125,5.26186 4.01327,1.87286 9.4535,1.87286 8.74003,0 13.46678,-4.28083 4.81593,-4.28083 6.59961,-12.12902 l -5.61859,0 q -1.33776,5.35104 -4.81594,8.56166 -3.47817,3.21063 -9.63186,3.21063 -4.01328,0 -6.86717,-1.6945 -2.85389,-1.69449 -4.72675,-4.28083 -1.87286,-2.58633 -2.7647,-5.79696 -0.80266,-3.2998 -0.80266,-6.33206 z" />
        <path
           id="path4607"
           d="m 703.60968,142.9516 0,-42.2732 -5.61859,0 0,7.93737 -0.17836,0 q -0.80266,-1.87286 -2.31879,-3.56736 -1.42694,-1.69449 -3.2998,-2.94307 -1.87287,-1.33776 -4.19165,-2.05123 -2.2296,-0.71347 -4.81594,-0.71347 -4.9943,0 -8.91839,1.87286 -3.83491,1.78368 -6.51043,4.99431 -2.58634,3.12143 -4.01328,7.40226 -1.33776,4.19165 -1.33776,8.9184 0,4.90512 1.15939,9.27513 1.15939,4.28083 3.65654,7.49146 2.58634,3.21062 6.51043,5.08348 3.9241,1.78368 9.4535,1.78368 5.08349,0 8.82922,-2.58633 3.83491,-2.58634 5.79696,-6.86717 l 0.17836,0 0,6.24288 q 0,8.38329 -3.47817,12.84249 -3.47818,4.4592 -11.32637,4.4592 -2.31878,0 -4.54838,-0.5351 -2.2296,-0.44592 -4.10246,-1.51613 -1.78368,-1.07021 -3.12144,-2.85389 -1.24857,-1.69449 -1.69449,-4.28083 l -5.61859,0 q 0.26755,3.65654 1.96204,6.24288 1.78368,2.67552 4.37002,4.37001 2.67552,1.6945 5.97532,2.49715 3.29981,0.80266 6.77798,0.80266 5.61859,0 9.45351,-1.51613 3.92409,-1.51612 6.33206,-4.37001 2.40796,-2.85389 3.47817,-6.95635 1.15939,-4.10246 1.15939,-9.18595 z m -20.42313,-1.51613 q -3.92409,0 -6.77798,-1.51612 -2.85388,-1.60532 -4.72675,-4.10247 -1.87286,-2.58633 -2.7647,-5.88614 -0.89184,-3.29981 -0.89184,-6.77798 0,-3.56736 0.80266,-6.95635 0.89184,-3.47817 2.7647,-6.15369 1.87286,-2.67552 4.72675,-4.28083 2.85389,-1.6945 6.86716,-1.6945 4.01328,0 6.77799,1.6945 2.85388,1.69449 4.63756,4.45919 1.78368,2.76471 2.58634,6.1537 0.80265,3.38899 0.80265,6.77798 0,3.47817 -0.98102,6.77798 -0.89184,3.29981 -2.7647,5.88614 -1.87287,2.49715 -4.63757,4.10247 -2.7647,1.51612 -6.42125,1.51612 z" />
        <path
           id="path4609"
           d="m 714.19468,100.6784 0,46.01893 5.61859,0 0,-24.52559 q 0,-3.65655 1.24858,-6.6888 1.24857,-3.12144 3.47817,-5.35104 2.31878,-2.2296 5.44022,-3.38899 3.12144,-1.24858 6.95635,-1.07021 l 0,-5.61859 q -6.24287,-0.26755 -10.79126,2.7647 -4.4592,3.03226 -6.59961,8.65085 l -0.17837,0 0,-10.79126 -5.17267,0 z" />
        <path
           id="path4611"
           d="m 741.87796,114.76947 5.61859,0 q 0.17837,-5.61859 3.56736,-8.11574 3.38899,-2.58634 8.74003,-2.58634 2.49715,0 4.63757,0.44592 2.22959,0.35674 3.83491,1.42694 1.69449,1.07021 2.58633,2.94307 0.98102,1.78368 0.98102,4.63757 0,1.87286 -0.5351,3.03226 -0.44592,1.15939 -1.33776,1.87286 -0.89184,0.62429 -2.2296,0.89184 -1.33776,0.26755 -3.12144,0.44592 -4.54838,0.5351 -9.00758,1.15939 -4.37001,0.5351 -7.93737,1.96205 -3.47818,1.42694 -5.61859,4.19164 -2.14042,2.67552 -2.14042,7.49146 0,3.47817 1.1594,6.06451 1.24857,2.49715 3.2998,4.19164 2.14042,1.60531 4.90512,2.31879 2.85389,0.80265 6.06451,0.80265 3.38899,0 5.79696,-0.62429 2.49715,-0.62428 4.37001,-1.78367 1.96205,-1.1594 3.47818,-2.85389 1.60531,-1.78368 3.12144,-4.01328 l 0.17836,0 q 0,1.78368 0.17837,3.29981 0.26755,1.42694 0.98103,2.49715 0.71347,1.07021 1.96204,1.69449 1.33776,0.53511 3.47818,0.53511 1.15939,0 1.87286,-0.0892 0.80266,-0.0892 1.78368,-0.26755 l 0,-4.72675 q -0.80266,0.35674 -1.78368,0.35674 -3.29981,0 -3.29981,-3.38899 l 0,-24.43641 q 0,-4.63757 -1.51612,-7.49145 -1.51613,-2.94308 -3.9241,-4.54839 -2.40796,-1.60531 -5.44022,-2.140412 -3.03225,-0.624288 -6.06451,-0.624288 -4.01328,0 -7.31308,0.89184 -3.29981,0.89184 -5.79696,2.7647 -2.40797,1.87287 -3.83491,4.81594 -1.42695,2.94307 -1.6945,6.95635 z m 29.96581,6.77798 0,7.31308 q 0,3.38899 -1.33776,6.06451 -1.24857,2.67552 -3.47817,4.54839 -2.14042,1.87286 -5.08349,2.85388 -2.94307,0.98103 -6.15369,0.98103 -1.96205,0 -3.83491,-0.62429 -1.87286,-0.62429 -3.29981,-1.78368 -1.42694,-1.24858 -2.31878,-2.85389 -0.80266,-1.69449 -0.80266,-3.83491 0,-3.38899 1.96205,-5.17267 2.05123,-1.87286 5.17267,-2.85389 3.12144,-0.98102 6.86717,-1.42694 3.83491,-0.5351 7.40227,-1.15939 1.15939,-0.17837 2.67552,-0.62429 1.51612,-0.44592 2.05123,-1.42694 l 0.17836,0 z" />
        <path
           id="path4613"
           d="m 788.57273,100.6784 0,46.01893 5.61859,0 0,-25.68499 q 0,-3.65654 0.80266,-6.68879 0.80265,-3.12144 2.40797,-5.35104 1.69449,-2.31878 4.28083,-3.56736 2.67552,-1.33776 6.24287,-1.33776 2.67552,0 4.54839,0.89184 1.87286,0.89184 2.94307,2.49715 1.15939,1.51613 1.60531,3.65654 0.5351,2.05123 0.5351,4.37002 l 0,31.21439 5.61859,0 0,-26.04172 q 0,-3.21062 0.53511,-6.1537 0.62428,-3.03225 2.05123,-5.35103 1.42694,-2.31879 3.83491,-3.65655 2.40797,-1.42694 6.06451,-1.42694 6.06451,0 8.47247,3.03226 2.40797,2.94307 2.40797,8.65084 l 0,30.94684 5.61859,0 0,-31.21439 q 0,-16.1423 -15.25046,-16.1423 -4.54838,0 -8.56166,2.2296 -4.01328,2.2296 -6.06451,6.77798 -1.24857,-4.54838 -4.9943,-6.77798 -3.65654,-2.2296 -8.20492,-2.2296 -5.61859,0 -9.27514,2.40797 -3.56736,2.40796 -5.79695,6.68879 l -0.26756,0 0,-7.759 -5.17267,0 z" />
      </g>
    </g>
  </g>
  <style
     type="text/css"
     id="style4190">
	.st0{fill:#FFFFFF;}
	.st1{fill:none;stroke:#FFFFFF;stroke-width:2.4405;stroke-miterlimit:10;}
</style>
</svg>
